<svg xmlns="http://www.w3.org/2000/svg" viewBox="0 0 512 512">
  <rect width="512" height="512" rx="104" fill="#26282B"/>
  <g fill="none" stroke="#ffffff" stroke-width="22" stroke-linecap="round" stroke-linejoin="round">
    <path d="M150 300 L362 300 M150 300 L120 360 M362 300 L392 360" opacity="0"/>
  </g>
  <path fill="#ffffff" d="M396 250c10 0 18 8 18 18s-8 18-18 18l-104 4-58 96c-3 5-8 8-14 8h-22l30-104-58 2-26 34c-2 3-6 5-10 5h-16l18-65-18-65h16c4 0 8 2 10 5l26 34 58 2-30-104h22c6 0 11 3 14 8l58 96 104 4z"/>
</svg>
